Coordinates
nRows=8
nColumns=38

# SIMM Motion File Header:
name Coordinates
datacolumns 38
datarows 8
otherdata 1
range 1.18900000000000010000 1.19600000000000000000

Units are S.I. units (second, meters, Newtons, ...)
Angles are in degrees.

endheader
time	pelvis_tilt	pelvis_list	pelvis_rotation	pelvis_tx	pelvis_ty	pelvis_tz	hip_flexion_r	hip_adduction_r	hip_rotation_r	knee_angle_r	ankle_angle_r	subtalar_angle_r	mtp_angle_r	hip_flexion_l	hip_adduction_l	hip_rotation_l	knee_angle_l	ankle_angle_l	subtalar_angle_l	mtp_angle_l	lumbar_extension	lumbar_bending	lumbar_rotation	arm_flex_r	arm_add_r	arm_rot_r	elbow_flex_r	pro_sup_r	wrist_flex_r	wrist_dev_r	arm_flex_l	arm_add_l	arm_rot_l	elbow_flex_l	pro_sup_l	wrist_flex_l	wrist_dev_l
      1.18900000000000010000	     -4.13116197822805110000	      3.08611135482270390000	     -0.56532356558188968000	      1.15915467810892700000	      0.97245989439034597000	     -0.43660843964210977000	    -25.36955948373646700000	      4.81248516732799110000	      8.61682462339679490000	    -53.03622396078476700000	    -25.34960211400099400000	     -0.00000000000016318699	      0.00000000000005524050	     28.13519058514751900000	      8.66468555364485300000	      7.83666774101912280000	     -4.22956064769951200000	     13.61370672268395600000	     -0.00000000000001219201	      0.00000000000002642571	    -10.29392306286673500000	     -2.82822358992829100000	     18.21025251245624300000	    -21.46550716644900800000	    -29.26134518000320700000	     -0.22473259378480698000	    140.57224125483867000000	     91.36397792609085400000	     -0.00000000000000236451	      0.00000000000000549144	    -62.79325242587474800000	    -12.52620275134101400000	    -25.68635678715245900000	    131.51180169062923000000	     97.88925607186412500000	      0.00000000000000419143	      0.00000000000003007107
      1.18999999999999990000	     -4.08817607756740480000	      3.06384131075966430000	     -0.50426707552748262000	      1.15906105065216370000	      0.97208799610752861000	     -0.43657794663875671000	    -25.18011999482897400000	      4.84057361716925970000	      8.36090099647297260000	    -53.84413845711739600000	    -25.24323130678601100000	     -0.00000000000016405362	      0.00000000000005553768	     27.95160783153812600000	      8.65822224038789480000	      7.87761017377382180000	     -3.88653842855874880000	     13.58843996366499200000	     -0.00000000000001224203	      0.00000000000002659436	    -10.37567437927021700000	     -2.80905352930079340000	     18.08705006535560100000	    -21.60784447880652000000	    -29.13830366789447600000	     -0.21143829559213370000	    140.25881705038074000000	     91.40377544244137200000	     -0.00000000000000237551	      0.00000000000000553563	    -62.49909763604279800000	    -12.56141300938366900000	    -25.62396291909550100000	    131.48030653334445000000	     97.89701763529633600000	      0.00000000000000420710	      0.00000000000003019789
      1.19100000000000010000	     -4.04558980479123510000	      3.04386589875778360000	     -0.44485894723252717000	      1.15896441461958100000	      0.97170748459464273000	     -0.43654664327905485000	    -24.98761776265917000000	      4.86212026179040180000	      8.10364889002641680000	    -54.65278232030103600000	    -25.13383478461110700000	     -0.00000000000016492077	      0.00000000000005583563	     27.77400218435586900000	      8.65375382715542860000	      7.91226330130345000000	     -3.56816020105889550000	     13.56094533569904900000	     -0.00000000000001229318	      0.00000000000002676125	    -10.45669423288329400000	     -2.79215257208914290000	     17.96293662024315900000	    -21.74671667393712600000	    -29.01305066079500600000	     -0.19680825281280412000	    139.93977325357301000000	     91.44117591088864600000	     -0.00000000000000238600	      0.00000000000000558351	    -62.20344003075635400000	    -12.59718238755905300000	    -25.56046148688285100000	    131.44757954556354000000	     97.90632348939568900000	      0.00000000000000422256	      0.00000000000003032473
      1.19199999999999990000	     -4.00334002254021120000	      3.02615899863548780000	     -0.38712444590406425000	      1.15886477305443100000	      0.97131854008730634000	     -0.43651446871747579000	    -24.79226024730537500000	      4.87722006037525450000	      7.84558166393005240000	    -55.46192387691555600000	    -25.02111013235070700000	     -0.00000000000016578927	      0.00000000000005613299	     27.60241693435188600000	      8.65128649927599190000	      7.94052774790222850000	     -3.27471158883156650000	     13.53083063600392700000	     -0.00000000000001234471	      0.00000000000002692867	    -10.53705476642679400000	     -2.77750687826344440000	     17.83794380880347700000	    -21.88207874096974600000	    -28.88566461261908100000	     -0.18089713554554215000	    139.61516028716085000000	     91.47624676277789000000	     -0.00000000000000239665	      0.00000000000000563163	    -61.90629000631315600000	    -12.63353888904774500000	    -25.49585671098849500000	    131.41363111909556000000	     97.91696155881564300000	      0.00000000000000423832	      0.00000000000003045091
      1.19300000000000010000	     -3.96136164474809420000	      3.01068924972765160000	     -0.33108245828254840000	      1.15876213293969440000	      0.97092133694166460000	     -0.43648137202459009000	    -24.59425260220100300000	      4.88598088164809500000	      7.58718817054861460000	    -56.27133846261208600000	    -24.90478129821087400000	     -0.00000000000016665348	      0.00000000000005642887	     27.43688772679543700000	      8.65082248825876650000	      7.96231634568930960000	     -3.00645914258682230000	     13.49776722412082800000	     -0.00000000000001239740	      0.00000000000002709856	    -10.61683042217409000000	     -2.76509567672602730000	     17.71210020450779900000	    -22.01389482859645200000	    -28.75622305366614000000	     -0.16376711029092408000	    139.28503272324690000000	     91.50906387821029900000	     -0.00000000000000240829	      0.00000000000000567961	    -61.60765855296780600000	    -12.67051124644702200000	    -25.43015033997108200000	    131.37847309716838000000	     97.92871325099510200000	      0.00000000000000425480	      0.00000000000003057708
      1.19400000000000000000	     -3.91968359197170810000	      2.99749484121942530000	     -0.27670809105229788000	      1.15865640447401200000	      0.97051601399339416000	     -0.43644740791173287000	    -24.39367613362571400000	      4.88845143826303110000	      7.32884790566977620000	    -57.08085452476602500000	    -24.78456746993280600000	     -0.00000000000016751475	      0.00000000000005672411	     27.27756675461840900000	      8.65243665377444590000	      7.97750442166917660000	     -2.76368894604816970000	     13.45796269372354600000	     -0.00000000000001245185	      0.00000000000002726973	    -10.69600235722369100000	     -2.75496632374901070000	     17.58538212018352800000	    -22.14212228241760600000	    -28.62477587752573900000	     -0.14546610762086198000	    138.94941147862087000000	     91.53973570021143800000	     -0.00000000000000242147	      0.00000000000000572986	    -61.30754651588871700000	    -12.70813644148790500000	    -25.36334877884630100000	    131.34209731889996000000	     97.94135481381027800000	      0.00000000000000427066	      0.00000000000003070286
      1.19500000000000010000	     -3.87854024100392890000	      2.98655606253893420000	     -0.22403965923516131000	      1.15854746309587450000	      0.97010236294899732000	     -0.43641254407154734000	    -24.19036307082636800000	      4.88473128789286100000	      7.07101178895704320000	    -57.89041166397161900000	    -24.66016585519268700000	     -0.00000000000016837293	      0.00000000000005702122	     27.12483605050300300000	      8.65611964210613040000	      7.98595497553505230000	     -2.54672683801260020000	     13.40996502485377000000	     -0.00000000000001250641	      0.00000000000002743685	    -10.77431757813132100000	     -2.74710834176429320000	     17.45785093959619500000	    -22.26677244123930800000	    -28.49136717486596000000	     -0.12605430097029247000	    138.60830870224831000000	     91.56839549730641200000	     -0.00000000000000243452	      0.00000000000000578242	    -61.00599686511821300000	    -12.74645126335655800000	    -25.29545615346929600000	    131.30449135525211000000	     97.95466450290121000000	      0.00000000000000428534	      0.00000000000003082889
      1.19600000000000000000	     -3.83779917751674300000	      2.97773929422078740000	     -0.17310442615910440000	      1.15843540405419290000	      0.96968054819105554000	     -0.43637669582857253000	    -23.98459963286713000000	      4.87505554873878650000	      6.81417454002296190000	    -58.69977144137031600000	    -24.53141094970791900000	     -0.00000000000016922879	      0.00000000000005731836	     26.97862237687067500000	      8.66177898578145110000	      7.98769244313431150000	     -2.35576327828150410000	     13.35783096128137600000	     -0.00000000000001255771	      0.00000000000002760244	    -10.85192008845995200000	     -2.74138893848020440000	     17.32956861193188300000	    -22.38785116791076700000	    -28.35610301073060000000	     -0.10563751795973991000	    138.26182507716140000000	     91.59511702650834800000	     -0.00000000000000244759	      0.00000000000000583410	    -60.70304685867794300000	    -12.78547523730196100000	    -25.22646305780278600000	    131.26569934215070000000	     97.96841193912968000000	      0.00000000000000429986	      0.00000000000003095511
